# xmcd CD database file
#
# Track frame offsets:
#	150
#	24156
#	44974
#	67334
#	90400
#	115756
#
# Disc length: 1786 seconds
#
# Revision: 0
# Processed by: cddbd v1.5.2PL0 Copyright (c) Steve Scherf et al.
# Submitted via: CDex 1.81
#
DISCID=4d06f806
DTITLE=Chet Baker - Chet Baker Quintette
DYEAR=1956
DGENRE=Jazz
TTITLE0=Extra Mild
TTITLE1=Halema
TTITLE2=Jumpin'Off A Cliff
TTITLE3=The Route
TTITLE4=Lucius Lou
TTITLE5=Pawnee Junction
EXTD=YEAR: 1956
EXTT0=
EXTT1=
EXTT2=
EXTT3=
EXTT4=
EXTT5=
PLAYORDER=
